<mxfile host="Electron" agent="Mozilla/5.0 (Macintosh; Intel Mac OS X 10_15_7) AppleWebKit/537.36 (KHTML, like Gecko) draw.io/24.7.5 Chrome/126.0.6478.183 Electron/31.3.0 Safari/537.36" version="24.7.5">
  <diagram id="xb-0weXn1_gc28yyCI_4" name="Page-1">
    <mxGraphModel dx="1004" dy="709" grid="1" gridSize="10" guides="1" tooltips="1" connect="1" arrows="1" fold="1" page="1" pageScale="1" pageWidth="827" pageHeight="1169" math="0" shadow="0">
      <root>
        <mxCell id="0" />
        <mxCell id="1" parent="0" />
        <mxCell id="9sfPug-zY2OXsNQ2SP87-4" style="edgeStyle=orthogonalEdgeStyle;rounded=0;orthogonalLoop=1;jettySize=auto;html=1;dashed=1;" parent="1" source="3" target="9sfPug-zY2OXsNQ2SP87-3" edge="1">
          <mxGeometry relative="1" as="geometry" />
        </mxCell>
        <mxCell id="9sfPug-zY2OXsNQ2SP87-7" value="2. set_hop_hour" style="edgeLabel;html=1;align=center;verticalAlign=middle;resizable=0;points=[];" parent="9sfPug-zY2OXsNQ2SP87-4" vertex="1" connectable="0">
          <mxGeometry x="-0.1532" y="-1" relative="1" as="geometry">
            <mxPoint x="-1" y="-28" as="offset" />
          </mxGeometry>
        </mxCell>
        <mxCell id="9sfPug-zY2OXsNQ2SP87-6" style="edgeStyle=orthogonalEdgeStyle;rounded=0;orthogonalLoop=1;jettySize=auto;html=1;dashed=1;startArrow=classic;startFill=1;" parent="1" source="3" target="9sfPug-zY2OXsNQ2SP87-5" edge="1">
          <mxGeometry relative="1" as="geometry" />
        </mxCell>
        <mxCell id="9sfPug-zY2OXsNQ2SP87-8" value="get_usage" style="edgeLabel;html=1;align=center;verticalAlign=middle;resizable=0;points=[];" parent="9sfPug-zY2OXsNQ2SP87-6" vertex="1" connectable="0">
          <mxGeometry x="0.2265" y="1" relative="1" as="geometry">
            <mxPoint x="1" y="-76" as="offset" />
          </mxGeometry>
        </mxCell>
        <mxCell id="9sfPug-zY2OXsNQ2SP87-10" style="edgeStyle=orthogonalEdgeStyle;rounded=0;orthogonalLoop=1;jettySize=auto;html=1;dashed=1;" parent="1" source="3" target="9sfPug-zY2OXsNQ2SP87-9" edge="1">
          <mxGeometry relative="1" as="geometry" />
        </mxCell>
        <mxCell id="9sfPug-zY2OXsNQ2SP87-11" value="3. send_pushover_notification" style="edgeLabel;html=1;align=center;verticalAlign=middle;resizable=0;points=[];" parent="9sfPug-zY2OXsNQ2SP87-10" vertex="1" connectable="0">
          <mxGeometry x="-0.1861" y="-1" relative="1" as="geometry">
            <mxPoint x="26" y="-111" as="offset" />
          </mxGeometry>
        </mxCell>
        <mxCell id="ERQPK_Wjldbbk1GuzCtZ-4" value="key vault reference" style="edgeStyle=orthogonalEdgeStyle;rounded=0;orthogonalLoop=1;jettySize=auto;html=1;startArrow=classicThin;startFill=1;fontStyle=2" edge="1" parent="1" source="3" target="ERQPK_Wjldbbk1GuzCtZ-3">
          <mxGeometry x="0.2727" relative="1" as="geometry">
            <mxPoint as="offset" />
          </mxGeometry>
        </mxCell>
        <mxCell id="3" value="Azure Function App" style="aspect=fixed;html=1;points=[];align=center;image;fontSize=12;image=img/lib/azure2/compute/Function_Apps.svg;" parent="1" vertex="1">
          <mxGeometry x="452" y="260" width="68" height="60" as="geometry" />
        </mxCell>
        <mxCell id="9sfPug-zY2OXsNQ2SP87-3" value="electrickiwi" style="shape=image;verticalLabelPosition=top;labelBackgroundColor=default;verticalAlign=bottom;aspect=fixed;imageAspect=0;image=data:image/svg+xml,PHN2ZyB4bWxucz0iaHR0cDovL3d3dy53My5vcmcvMjAwMC9zdmciIHZpZXdCb3g9IjAgMCA0Ny4wOTExOSAzOC45NjQ3MSIgaWQ9IkxheWVyXzEiPjxkZWZzPjxzdHlsZT4uY2xzLTF7ZmlsbDojMzMzMTMyO3N0cm9rZS13aWR0aDowcHg7fTwvc3R5bGU+PC9kZWZzPjxwYXRoIGQ9Ik0uMTIyNjQsMjguMjk1ODNjLjA1NTE4LS4wMjA0MS4xMDM1Ni0uMDU1MTguMTUxNTUtLjA4ODA2LS4wNTMyOS4wMjQ1Ny0uMTA3MzQuMDUxMDItLjE1MTU1LjA4ODA2Wk05LjM0NjI3LDIyLjkyMTE0Yy0uMDY4NzkuMDQ3NjItLjEzNzk1LjA5NDg2LS4yMDc0OS4xNDE3My0uMTY1NTQuMDkyNi0uMzkzMDYuMjQ4NjgtLjYyNzM4LjM1ODI5LS41NjM1MS40ODY0MS0xLjEyNTUxLjk3NDMzLTEuNjg1OTksMS40NjQxNC0xLjMzMTg2LDEuMTYzMy0yLjY1MjM4LDIuMzM0MTYtMy45Nzg5NSwzLjUwMjM3LjAxMjg1LjAyMTU0LjAwODY5LjA1MTc4LS4wMTI0Ny4wNjcyNy0uMTQ1ODguMTA4NDctLjI5MjkuMjE2MTgtLjQzODc5LjMyNjE2LS4zMzkwMS4yOTQ0Mi0uNjc3MjcuNTg5NTktMS4wMjYxMS44NzI2Ni0uMDE2MjUuMDE1ODctLjAzMTc1LjAzMTc1LS4wNDY4Ni4wNDguODg3NzgtLjU1MjkzLDEuNjUzODctMS4yODgwMiwyLjQ2NDU1LTEuOTQ2MzksMS4yMTMxOS0xLjA0NzI3LDIuNDIwNzEtMi4xMDA1OSwzLjYyNzg1LTMuMTUzOTEuNjQzNjMtLjU1OTczLDEuMjg2ODktMS4xMjA1OSwxLjkzMTY1LTEuNjgwMzJaTTIyLjQwMzczLDI0LjE4OTg5Yy0xLjY2ODIzLTIuNDM3NzEtMy4xMDQ3OC01LjAzMjY1LTQuNzc2NDEtNy40NjU0NS0uMDMyNS4wMTk2NS0uMDY1MDEuMDM4OTMtLjA5NzEzLjA1ODU4LDEuNjU5MTYsMi40MzczNCwzLjE1ODA3LDUuMDA0NjgsNC44NzM1NCw3LjQwNjg3Wk0yNS4zMDI1MywxMi41NzA0OWMuMDMxMzctLjA0Mzg0LjA2Mjc0LS4wODgwNi4wOTQ0OS0uMTMxNTItLjQ2MzM1LTEuMDYwNS0uODIzOTEtMi4xNjU5OC0xLjI5MzMxLTMuMjI0NTktLjU4NTA1LTEuMzQ4NDktMS4yMTgxLTIuNjc1NDQtMS44MDY5My00LjAyMjQyLS40ODU2NS0xLjA5ODI5LS45NDI1OC0yLjIwODY4LTEuNDA1OTQtMy4zMTY0My0uMTU3OTguMTIxNy0uMzEzMzEuMjQ3MTctLjQ2Njc2LjM3NDkyLjAwNjQyLjAwOTgzLjAxMjg1LjAxOTY1LjAxOTY1LjAyOTQ4LjM5Nzk3LjU2OTkzLjg2NDczLDEuMDg4MDksMS4yNzI5LDEuNjUwNDcuMDczMzIuMDkzNzMtLjA3MzcuMjExNjUtLjE0NzQuMTE0MTQtLjI2MTE2LS4zNTc5MS0uNTM3NDMtLjcwNDEtLjgxODYyLTEuMDQ2ODktLjE3Mzg1LS4xOTYxNS0uMzI4MDUtLjQwNzA0LS40NzMxOC0uNjIzOTgtLjAyMDc5LjAxNzc2LS4wNDE5NS4wMzU1My0uMDYyNzQuMDUzNjdsLS4wMjI2OC4wNzAzYy0uMDA1NjcuMDE1MTItLjAxMDk2LjAyOTg2LS4wMTczOS4wNDQ5Ny4xMTMuMjAxMDYuMjIyOTguNDAzNjQuMzM0NDguNjA1NDYuNTIzNDUsMS4wMDY4MywxLjAxNTUzLDIuMDI5NTQsMS40ODAzOSwzLjA2NDcyLDEuMTkxMjcsMi4wNzE4NywyLjQyNTI0LDQuMTMyNCwzLjMxMzAyLDYuMzU3NzFaTTI2LjcyOTI2LDI5LjIyMzY4YzEuMDY1NzksMS4wNDkxNiwyLjE3MDEzLDIuMDU5NzcsMy4yMzM2NiwzLjExMDA3LTEuMjA3NTItMS42MjQwMS0yLjMzMTg5LTMuMzEwNzYtMy42MTE2LTQuODgwMzQtLjkwMTc3LTEuMTA3NzQtMS44NzExOC0yLjE1ODA0LTIuNzU4MjEtMy4yNzg2My0xLjQ4ODcxLTEuODQyNDYtMi43NDI3MS0zLjg1MzEtNC4wNDYyMy01LjgyNjctLjI0NzkzLS4zNy0uNDk5MjYtLjczNzM2LS43NDQ5Mi0xLjEwODUtLjE5NDI2LS4yOTU5My0uNDIxMDMtLjU4NTgxLS40OTA1Ny0uOTQxMDctLjA0MDQ0LjA2NTM4LS4xMDA5MS4xMDkyMi0uMTY3NDMuMTQ1NTEsMS44NjY2NSwyLjY0NzA5LDMuNDM5MjYsNS41MDc3Miw1LjMzNzY1LDguMTI4MzYuNjk5OTUuOTk2NjMsMS40NTI4LDEuOTU2MjIsMi4xNDU1NywyLjk1Nzc2LjM3OTgzLjU1NjMzLjc0Mzc5LDEuMTIzMjQsMS4xMDIwNywxLjY5MzU1Wk0zMi4wMTU4OSwzNi4yNzE1Yy0uMDI4MzUtLjA4MzUyLS4wMjcyMS0uMTc2ODguMDE2MjUtLjI3MDIzLS43MzU0Ny0xLjM0MDU1LTEuODg1NTQtMi4zOTAwOS0yLjk1MTM0LTMuNDY1NzEtLjIxOTIxLS4yMTA1MS0uNDM5MTctLjQyMDY1LS42NTk1MS0uNjMwMDMuMDQ0Ni4wNjgwMy4wODkxOS4xMzUzLjEzMzc5LjIwMjk1LDEuMDA1NywxLjU4NTg0LDIuMTc4NDUsMy4wNTk0MywzLjE0Nzg2LDQuNjY4Ny4xMDE2Ny0uMTcwNDUuMjA1OTgtLjMzOTAxLjMxMjkzLS41MDU2OFpNNDUuMTEyMjcsMTYuOTQ5MzFjLS4wNjIzNi0uMDg0NjYtLjEyNTEtLjE2OTMyLS4xODgyMS0uMjUzNi0uMzEzNjkuNDg4NjgtLjYyODE0Ljk3NzM1LS44NTc1NSwxLjUxMzI3LS4zMjc2Ny43NjY0Ni0uNjI4MTQsMS41NDcyOS0uOTQ5MzksMi4zMTgyOS4wOTgyNi0uMTIwNTYuMTk2MTUtLjI0MDc1LjI5NDQyLS4zNjEzMS41MjcyMy0xLjA5NDUxLDEuMDQ1LTIuMTkzOTQsMS43MDA3My0zLjIxNjY1Wk00NS4xMzYwOCwxNC42ODQ2OWMuMDM3MDQtLjA5MjYuMDY3NjUtLjE4NzA4LjA5MDcxLS4yODM0Ni0uMTEzNzYtLjA5NjM3LS4yMzAxNy0uMTg5NzMtLjM0NTgyLS4yODM4My0uMDc1OTcuMDUxNzgtLjE4OTczLS4wMzI1LS4xNDAyMi0uMTE0MTQtLjE4ODk3LS4xNTQ5Ni0uMzgwOTYtLjMwNjg5LS41NzI5Ni0uNDU4MDYuMDQ3NjIuMDUyNTMuMDk0NDkuMTA1MDcuMTQxMzUuMTU3OTguMjg1MzQuMzE4OTguNTYxMjQuNjQ2MjguODI2OTMuOTgxNTFaTTQ1LjU3NiwxNC4yMDg0OWMuMTYwNjItLjM0NzcxLjM2MTY5LS43MDI5Ny4zODQzNy0xLjA4MzE4LS4zMTg2LjE3NTc0LS41NjY1My40NjQ4Ny0uODE5LjcyMy4xMjU0OC4xMDE2Ny4yNTEzMy4yMDI1OC4zNzM3OC4zMDgwMi4wMjA0MS4wMTczOS4wNDA0NC4wMzQ3Ny4wNjA4NS4wNTIxNlpNNDYuMTA5MjgsMTUuNTE4ODFjLjEwMjQyLS4wMTU4Ny4xODEwMy0uMDQ1MzUuMjM4NDgtLjA4MzUyLS4xMzk0Ni0uMTU4MzYtLjI5MjE1LS4zMDQ2Mi0uNDQ4NjItLjQ0NjczLS4wNzYzNC4xMzYwNi0uMTQ4NTMuMjc0MzgtLjIxOTk2LjQxMjcxLjAxMTcyLjAxNDc0LjAyMjMuMDI5NDguMDMyNS4wNDQyMi4xMjgxMi4wNDM0Ni4yNjE1My4wNzk3NS4zOTc1OS4wNzMzMlpNNDcuMDkxMTcsMTcuNzMzOTFjLjAwMzAyLjI3NTktLjMwMTIyLjQ5MjQ2LS41NTYzMy4zNjQ3MS0uMDc2NzIuMTI2MjMtLjIxMjc4LjE3NTc0LS4zNDk1OS4xOTQyNi0uMTA4MDkuMDQzNDYtLjE5ODA0LjEyMDU2LS4yODc5OS4xOTM1MS0uNzMzOTYuNzE1NDQtMS4zNjMyMywxLjUyOTE1LTIuMDEwNjQsMi4zMjM1OC0uMjMyODEuNDc5OTgtLjQ3MjQzLjk1Njk0LS43MzM5NiwxLjQyMjk1LS45ODY4LDEuNzk4MjQtMi4yNjI3MywzLjQwOTAyLTMuNTA5MTgsNS4wMzAzOC0xLjE2MjU0LDEuNTE2NjctMi4zNDM5OSwzLjAxODYxLTMuNTMyNjEsNC41MTQ1LS4xNDAyMi4yODM0Ni0uMjc4MTYuNTY4MDQtLjQxNDIyLjg1MzM5LS41NTcwOCwxLjE2NzQ2LTEuMTcwMSwyLjMwNTgxLTEuODAyNzcsMy40MzM1OS0uMTg3ODQuMzcxNTItLjM0MjQxLjc2MDA0LS40NTMxNSwxLjE2MTc5LS4wNTMyOS4zNzAzOC0uNDUwNS42MjA5Ni0uNzM2MjMuMjkwMjYtLjE1MDQyLS4yMjc5LS4xNzA0NS0uNTExNzMtLjIyODI4LS43NzgxOC0uMTQwOTcuMjI3NTItLjI3MDk4LjQ2MTA5LS4zODUxMi43MDM3Mi4xMzU2OC4yMzAxNy4yODY4Ni40NTEyNi40NDc0OC42NjQ4LjExODY3LjE3MjM0LjI5NTE3LjM1My4yNjE5MS41Nzc4Ny0uMDE1NS4xNjk3LS4xNzM0Ny4yNzk2OC0uMzMwMzIuMjc5NjgtLjA3NTIxLDAtLjE1MDA0LS4wMjUzMi0uMjA4NjItLjA4MTY0LS4xODE3OS0uMTUyMzEtLjMzOTc3LS4zMjU3OC0uNTM5Ny0uNDU2OTMtLjIyOTc5LS4xNTY0Ny0uMzY2OTgtLjQyODk2LS4zMzU5OS0uNzA3ODgtLjg2Njk5LTEuNTgwOTItMS45NjA3NS0yLjk5MTc3LTIuOTQ5ODItNC40ODg0Mi0uNzM1ODUtMS4wOTU2NS0xLjQyMTA2LTIuMjIzNDItMi4xMTc5OC0zLjM0MzY0LS43ODMwOS0uNzY5NDktMS41NDgwNC0xLjU1NjM2LTIuMjcxOC0yLjM4MzY3LTIuNzcyOTUtMy4xNTI3OC00Ljc5OTQ2LTYuODYyMjYtNy4xNDk4Ny0xMC4zMjMwNi0uNDAyNTEuMjU1NDktLjc5NTk0LjUyMzQ1LTEuMTgyOTUuODAwNDgtLjIzODg2LjE4NzQ2LS40Nzg0Ny4zNzM0LS43MTk2LjU1Nzg0LTIuMTUwMSwxLjcxODg3LTQuMjQ0MjcsMy41MDkxOC02LjMyODk5LDUuMzA0NzctMS41Nzc5LDEuMzYxMzQtMy4xNTQyOSwyLjcyNjg0LTQuNzQxNjQsNC4wNzI2OC0uNjAyNDQuNDkyNDYtMS4xOTU0Mi45OTczOC0xLjgyMDE2LDEuNDYxODctLjI0NzE3LjE2NzQzLS40NzY1OC4zNzQ1NC0uNzU3MzkuNDgzNzYtLjA2NjUyLjAxMDU4LS4xNDY2NC4wNTQ4LS4yMDYzNi4wMTAyLS4wMDUyOS0uMDA5MDctLjAwOTA3LS4wMTc3Ni0uMDExNzItLjAyNjgzLS4yNDgzMS4yMjE0Ny0uNTYzNTEuNTc0ODUtLjc5NzgzLjM2MDE4LS4yMjUyNS0uMjA3ODcuMTQ1NTEtLjQzOTkyLjI3NDAxLS41OTE4NS4wMzM2NC0uMDMxNzUuMDY3MjctLjA2MzQ5LjEwMDkxLS4wOTU2Mi0uMDYyMzYuMDE3MDEtLjEyNjk5LjAyMDQxLS4xOTMxMy4wMDI2NS0uMzQyNDEtLjA5Nzg5LS4yNjk4NS0uMzg2NjMtLjExNzkyLS42NzI3My4wMTE3Mi0uMDM4MTcuMDMyODgtLjA3NTU5LjA2MDA5LS4xMDczNC4xMDIwNC0uMTcyNzIuMjE4MDctLjMzNTIzLjI3MTc0LS40NDQwOC0uMDc0NDUuMDM3MDQtLjE1MTkzLS4wMzMyNi0uMTM0OTItLjExMTg3LjAwODY5LS4wMzIxMi4wMjYwOC0uMDYwMDkuMDQ2ODYtLjA4NjU1LS4xNzkxNC4xMTE4Ny0uMzU2NzguMjU3MzgtLjU1ODk3LjI5NTU1LS4yNDcxNy0uMDY0NjMuMTYyMTQtLjIyMjk4LjIzNzcyLS4yNTYyNC4yMTA1MS0uMDc4OTkuMzk2ODQtLjIwMTgyLjU3NzQ5LS4zMzQ4Ni4xMjczNy0uMTQwOTcuMjU4ODktLjI3OTMuMzYzNTgtLjQzNTAxLS4wMDM3OC0uMDQ5ODkuMDE1NS0uMTA2OTYuMDU2MzEtLjE1MTkzLS4wMzQzOS0uMDYwODUuMDE4OS0uMTA5MjIuMDY5MTYtLjE0MTM1LjAzMTM3LS4wMjA0MS4wNjE2LS4wNDIzMy4wOTEwOC0uMDY1MzguMjQ2MDQtLjQwNDc3LjUwNjQ0LS44MDA0OC43NjA3OS0xLjE5OTk2LDEuMTY5MzUtMS44MTYsMi4yNzYzMy0zLjY3NDM0LDMuNTI5MjEtNS40MzU1NC44NDg0OC0xLjE4NTYsMS43NDA3OS0yLjMzODY5LDIuNjE2ODYtMy41MDM4OC41MzIxNC0uNzg2MTIsMS4wNzg2NC0xLjU2MjAzLDEuNjI1MTQtMi4zMzc5NC45NzA1NS0xLjQwMTc4LDEuOTkyODgtMi43NjYxNCwzLjAxMjk0LTQuMTMxMjcuNjk4MDYtMS4wMjI3MSwxLjM3ODM1LTIuMDYyMDQsMi4xNjI5NS0zLjAyMTI1LjI5NDQyLS4zNjMyLjYwMjA2LS43MTYyLjkyNjMzLTEuMDUzMzIuMjczMjUtLjM5MDc5LjU0ODc3LS43ODA0NS44Mzg2NS0xLjE1OTUyLjYyNy0uODE1NiwxLjMzNDEzLTEuNTY2NTYsMS45NDAzNS0yLjM5OTE2LjMyMzUyLS40MTk1MS42NTQyMS0uODM1NjMuOTMzODktMS4yODY4OS4wNTYzMS0uMDc1OTcuMDk3ODktLjE3NTM2LjE1ODczLS4yNDkwNi4wMDE4OS0uMDA1NjcuMDAzNC0uMDEwOTYuMDA0OTEtLjAxNjYzLjAyNzIxLS4wMzM2NC4wNTQwNS0uMDY3MjcuMDgwODgtLjEwMTI5LjA3MDMtLjA0OTg5LjE0MDU5LS4wOTk0LjIxMDg5LS4xNDg1My4wNTE0LS4wNTkzNC4xMDk2LS4xMDg0Ny4xNzY4OC0uMTI2MjMtLjAxOTI3LS4wNDUzNS0uMDM4OTMtLjA5MTQ2LS4wNTgyLS4xMzcxOS4xMTU2NS0uMTQ0NzUuMjMwOTItLjI4OTUuMzQ2NTctLjQzNDI1LjA0MjMzLjA5NzEzLjA4NDY2LjE5NDY0LjEyNjk5LjI5MTc3LjI0NDE1LS4xNjI1MS40OTE3LS4zMTk3NC43NDQxNi0uNDY5NC4wODA4OC0uMDQ0Ni4xNjk3LS4wNjY1Mi4yNjAwMi0uMDgyNzcuMzA0MjQtLjA1NzA3LjU0MzEuMzQzOTMuMzM2MzcuNTgxNjUtLjExNjQxLjE0ODkxLS4yODY4Ni4yMzMxOS0uNDQyMTkuMzM0MS4xMjgxMi4zMDk5MS0uMTUzODIuNDQ4MjQtLjM3NDE2LjU4NjE5LS4wMjk0OC4wMjA0MS0uMDU4OTYuMDQxMi0uMDg4NDQuMDYxOTguNjMxMTYsMS40NzQzNCwxLjI1MzI1LDIuOTUzNiwxLjkzMjc5LDQuNDA2NDEuNTMyOSwxLjE1Njg4LDEuMDkyMjUsMi4zMDIwMywxLjU5OTgyLDMuNDcwNjMuMzQ3NzEuNzk5NzIuNjQ4MTcsMS42MTk4NS45OTQ3NCwyLjQyMDMzLDEuMDkxODctMS4zNzc1OSwyLjM4MjU0LTIuNTkwNzgsMy42NTgwOC0zLjc5NjQxLDEuNzM1NS0xLjk3MzIzLDMuMzE4MzItNC4wNzc5OCw0Ljc5NTY4LTYuMjUtLjExNzE2LS4yNDg2OC0uMjY0NTYtLjUyMDQyLS4xOTM4OC0uODAzMTIuMTMyMjgtLjQyMDY1LjU5MTEtLjM4ODkuOTI2NzEtLjI0MjY0LjA4MTI2LjAyMzQzLjE0NzQuMDg3My4yMjU2My4xMTExMS4xMzI2Ni4wMTI0Ny4yNDk0NC4wODYxNy4zMjY1NC4xOTMxMy4yODgzNy41Njg0Mi40Mjc4MywxLjIwNzUyLjY4MTQzLDEuNzkzNy40MDUxNSwxLjAwMzQzLjkyMTgsMS45NTQzMywxLjQ3Mzk3LDIuODgzMzEuMzI3My41MjYwOS42NzI3MywxLjA0MDQ3LDEuMDI5ODksMS41NDcyOS43NDA3Ni43Njk4NiwxLjQ0NDExLDEuNTc1MjUsMi4xMDQzNywyLjQxNTQyLjQyNDguNTI1NzEuODA4NzksMS4wODQzMSwxLjIxOTYxLDEuNjE5MS4wNjI3NC4wNjYxNC4xMjU0OC4xMzIyOC4xODg1OS4xOTg0MmguMDAwMzhjLjg5Njg1Ljc2NjQ2LDEuODQwOTUsMS40NzMyMSwyLjc1NTk0LDIuMjE3LjE4MjkyLS4yMDIyLjM3OTA3LS4zOTE5Mi41ODgwOC0uNTY3NjcuMTEzNzYtLjA4NTQxLjIyMTg1LS4yMTg4My4zNzI2NS0uMjI3MTQuMzU3MTUuMDYyNzQuMDE0MzYuODIzNTMtLjE2NjY3LDEuMjEwOTIuNDYwNzEtLjA3MDMuOTAyNTIuMzIzMTQsMS4wNjQyOC43MzQzNC4wOTgyNi4yMzU4My4wNjUzOC40NjU2Mi0uMDQ5MTMuNjUxNTcuMDA0OTEuMDg1NzktLjAyOTg2LjE3MDQ1LS4xMjY5OS4yNDgzMS0uMTA5MjIuMTExODctLjI2MzA1LjE3NTc0LS4zNTgyOS4zMDEyMi0uMDI5NDguMDQ5ODktLjA1NTE4LjEwMTI5LS4wNzg2MS4xNTM4Mi4xNDYyNi4yMjQxMi4yODgzNy40NTEyNi40MjU1Ni42ODEwNS4xMzQ5Mi4yNjA0LjM2Njk4LjQ5NDcyLjM5NTcuNzk0NDNaIiBjbGFzcz0iY2xzLTEiLz48L3N2Zz4=;labelPosition=center;align=center;" parent="1" vertex="1">
          <mxGeometry x="449.84999999999997" y="80" width="72.31" height="60" as="geometry" />
        </mxCell>
        <mxCell id="9sfPug-zY2OXsNQ2SP87-5" value="Home Assistant" style="shape=image;verticalLabelPosition=top;labelBackgroundColor=default;verticalAlign=bottom;aspect=fixed;imageAspect=0;image=data:image/svg+xml,PHN2ZyB4bWxucz0iaHR0cDovL3d3dy53My5vcmcvMjAwMC9zdmciIGZpbGw9Im5vbmUiIHZpZXdCb3g9IjAgMCAyNDAgMjQwIiBoZWlnaHQ9IjI0MCIgd2lkdGg9IjI0MCI+JiN4YTs8cGF0aCBmaWxsPSIjRjJGNEY5IiBkPSJNMjQwIDIyNC43NjJDMjQwIDIzMy4wMTIgMjMzLjI1IDIzOS43NjIgMjI1IDIzOS43NjJIMTVDNi43NSAyMzkuNzYyIDAgMjMzLjAxMiAwIDIyNC43NjJWMTM0Ljc2MkMwIDEyNi41MTIgNC43NyAxMTQuOTkzIDEwLjYxIDEwOS4xNTNMMTA5LjM5IDEwLjM3MjVDMTE1LjIyIDQuNTQyNSAxMjQuNzcgNC41NDI1IDEzMC42IDEwLjM3MjVMMjI5LjM5IDEwOS4xNjJDMjM1LjIyIDExNC45OTIgMjQwIDEyNi41MjIgMjQwIDEzNC43NzJWMjI0Ljc3MlYyMjQuNzYyWiIvPiYjeGE7PHBhdGggZmlsbD0iIzE4QkNGMiIgZD0iTTIyOS4zOSAxMDkuMTUzTDEzMC42MSAxMC4zNzI1QzEyNC43OCA0LjU0MjUgMTE1LjIzIDQuNTQyNSAxMDkuNCAxMC4zNzI1TDEwLjYxIDEwOS4xNTNDNC43OCAxMTQuOTgzIDAgMTI2LjUxMiAwIDEzNC43NjJWMjI0Ljc2MkMwIDIzMy4wMTIgNi43NSAyMzkuNzYyIDE1IDIzOS43NjJIMTA3LjI3TDY2LjY0IDE5OS4xMzJDNjQuNTUgMTk5Ljg1MiA2Mi4zMiAyMDAuMjYyIDYwIDIwMC4yNjJDNDguNyAyMDAuMjYyIDM5LjUgMTkxLjA2MiAzOS41IDE3OS43NjJDMzkuNSAxNjguNDYyIDQ4LjcgMTU5LjI2MiA2MCAxNTkuMjYyQzcxLjMgMTU5LjI2MiA4MC41IDE2OC40NjIgODAuNSAxNzkuNzYyQzgwLjUgMTgyLjA5MiA4MC4wOSAxODQuMzIyIDc5LjM3IDE4Ni40MTJMMTExIDIxOC4wNDJWMTAyLjE2MkMxMDQuMiA5OC44MjI1IDk5LjUgOTEuODQyNSA5OS41IDgzLjc3MjVDOTkuNSA3Mi40NzI1IDEwOC43IDYzLjI3MjUgMTIwIDYzLjI3MjVDMTMxLjMgNjMuMjcyNSAxNDAuNSA3Mi40NzI1IDE0MC41IDgzLjc3MjVDMTQwLjUgOTEuODQyNSAxMzUuOCA5OC44MjI1IDEyOSAxMDIuMTYyVjE4My40MzJMMTYwLjQ2IDE1MS45NzJDMTU5Ljg0IDE1MC4wMTIgMTU5LjUgMTQ3LjkzMiAxNTkuNSAxNDUuNzcyQzE1OS41IDEzNC40NzIgMTY4LjcgMTI1LjI3MiAxODAgMTI1LjI3MkMxOTEuMyAxMjUuMjcyIDIwMC41IDEzNC40NzIgMjAwLjUgMTQ1Ljc3MkMyMDAuNSAxNTcuMDcyIDE5MS4zIDE2Ni4yNzIgMTgwIDE2Ni4yNzJDMTc3LjUgMTY2LjI3MiAxNzUuMTIgMTY1LjgwMiAxNzIuOTEgMTY0Ljk4MkwxMjkgMjA4Ljg5MlYyMzkuNzcySDIyNUMyMzMuMjUgMjM5Ljc3MiAyNDAgMjMzLjAyMiAyNDAgMjI0Ljc3MlYxMzQuNzcyQzI0MCAxMjYuNTIyIDIzNS4yMyAxMTUuMDAyIDIyOS4zOSAxMDkuMTYyVjEwOS4xNTNaIi8+JiN4YTs8L3N2Zz4=;labelPosition=center;align=center;" parent="1" vertex="1">
          <mxGeometry x="272" y="80" width="60" height="60" as="geometry" />
        </mxCell>
        <mxCell id="9sfPug-zY2OXsNQ2SP87-9" value="Pushover" style="shape=image;verticalLabelPosition=top;labelBackgroundColor=default;verticalAlign=bottom;aspect=fixed;imageAspect=0;image=data:image/svg+xml,PHN2ZyB4bWxucz0iaHR0cDovL3d3dy53My5vcmcvMjAwMC9zdmciIHZlcnNpb249IjEuMSIgdmlld0JveD0iMCAwIDYwMCA2MDAiIGhlaWdodD0iNjAwcHgiIHdpZHRoPSI2MDBweCI+JiN4YTsgIDxnIHN0cm9rZS13aWR0aD0iMSIgc3Ryb2tlPSJub25lIiBpZD0ibGF5ZXIxIj4mI3hhOyAgICA8ZWxsaXBzZSByeT0iMjk2Ljg1NSIgcng9IjI5Ni44NTUiIGN5PSIxNTIuMDc2IiBjeD0iMjE2LjMwOCIgdHJhbnNmb3JtPSJtYXRyaXgoLTAuNjc0NTcxLCAwLjczODIxLCAtMC43MzgyMSwgLTAuNjc0NTcxLCA1NTYuODMzMjM5LCAyNDEuNjEzNDY1KSIgc3R5bGU9ImZpbGw6IHJnYigzNiwgMTU3LCAyNDEpOyBmaWxsLXJ1bGU6IGV2ZW5vZGQ7IHN0cm9rZTogcmdiKDI1NSwgMjU1LCAyNTUpOyBzdHJva2Utd2lkdGg6IDA7Ii8+JiN4YTsgICAgPHBhdGggc3R5bGU9ImZpbGw6IHJnYigyNTUsIDI1NSwgMjU1KTsgZmlsbC1ydWxlOiBub256ZXJvOyB3aGl0ZS1zcGFjZTogcHJlOyIgdHJhbnNmb3JtPSJtYXRyaXgoMSwgMCwgMCwgMSwgMCwgMCkiIGQ9Ik0gMjgwLjk0OSAxNzIuNTE0IEwgMzU1LjQyOSAxNjIuNzE0IEwgMjgyLjkwOSAzMjYuMzc0IEwgMjgyLjkwOSAzMjYuMzc0IEMgMjk1LjY0OSAzMjUuMzk0IDMwOC4xNDIgMzIxLjA2NyAzMjAuMzg5IDMxMy4zOTQgTCAzMjAuMzg5IDMxMy4zOTQgTCAzMjAuMzg5IDMxMy4zOTQgQyAzMzIuNjQyIDMwNS43MTQgMzQzLjkxNiAyOTYuMDc3IDM1NC4yMDkgMjg0LjQ4NCBMIDM1NC4yMDkgMjg0LjQ4NCBMIDM1NC4yMDkgMjg0LjQ4NCBDIDM2NC40OTYgMjcyLjg4NCAzNzMuMzk2IDI1OS45ODEgMzgwLjkwOSAyNDUuNzc0IEwgMzgwLjkwOSAyNDUuNzc0IEwgMzgwLjkwOSAyNDUuNzc0IEMgMzg4LjQyMiAyMzEuNTYxIDM5My44MTIgMjE3LjU5NCAzOTcuMDc5IDIwMy44NzQgTCAzOTcuMDc5IDIwMy44NzQgTCAzOTcuMDc5IDIwMy44NzQgQyAzOTkuMDM5IDE5NS4zODEgMzk5LjkzOSAxODcuMjE0IDM5OS43NzkgMTc5LjM3NCBMIDM5OS43NzkgMTc5LjM3NCBMIDM5OS43NzkgMTc5LjM3NCBDIDM5OS42MTIgMTcxLjUzNCAzOTcuNTY5IDE2NC42NzQgMzkzLjY0OSAxNTguNzk0IEwgMzkzLjY0OSAxNTguNzk0IEwgMzkzLjY0OSAxNTguNzk0IEMgMzg5LjcyOSAxNTIuOTE0IDM4My43NjYgMTQ4LjE3NyAzNzUuNzU5IDE0NC41ODQgTCAzNzUuNzU5IDE0NC41ODQgTCAzNzUuNzU5IDE0NC41ODQgQyAzNjcuNzU5IDE0MC45OTEgMzU2Ljg5OSAxMzkuMTk0IDM0My4xNzkgMTM5LjE5NCBMIDM0My4xNzkgMTM5LjE5NCBMIDM0My4xNzkgMTM5LjE5NCBDIDMyNy4xNzIgMTM5LjE5NCAzMTEuNDA5IDE0MS44MDcgMjk1Ljg4OSAxNDcuMDM0IEwgMjk1Ljg4OSAxNDcuMDM0IEwgMjk1Ljg4OSAxNDcuMDM0IEMgMjgwLjM3NiAxNTIuMjYxIDI2Ni4wMDIgMTU5Ljg1NyAyNTIuNzY5IDE2OS44MjQgTCAyNTIuNzY5IDE2OS44MjQgTCAyNTIuNzY5IDE2OS44MjQgQyAyMzkuNTQyIDE3OS43ODQgMjI4LjAyOSAxOTIuMTk3IDIxOC4yMjkgMjA3LjA2NCBMIDIxOC4yMjkgMjA3LjA2NCBMIDIxOC4yMjkgMjA3LjA2NCBDIDIwOC40MjkgMjIxLjkyNCAyMDEuNDA2IDIzOC44MjcgMTk3LjE1OSAyNTcuNzc0IEwgMTk3LjE1OSAyNTcuNzc0IEwgMTk3LjE1OSAyNTcuNzc0IEMgMTk1LjUyNiAyNjMuOTgxIDE5NC41NDYgMjY4Ljk2MSAxOTQuMjE5IDI3Mi43MTQgTCAxOTQuMjE5IDI3Mi43MTQgTCAxOTQuMjE5IDI3Mi43MTQgQyAxOTMuODkyIDI3Ni40NzQgMTkzLjgxMiAyNzkuNTc3IDE5My45NzkgMjgyLjAyNCBMIDE5My45NzkgMjgyLjAyNCBMIDE5My45NzkgMjgyLjAyNCBDIDE5NC4xMzkgMjg0LjQ3NyAxOTQuNDYyIDI4Ni4zNTcgMTk0Ljk0OSAyODcuNjY0IEwgMTk0Ljk0OSAyODcuNjY0IEwgMTk0Ljk0OSAyODcuNjY0IEMgMTk1LjQ0MiAyODguOTcxIDE5NS44NTIgMjkwLjI3NyAxOTYuMTc5IDI5MS41ODQgTCAxOTYuMTc5IDI5MS41ODQgTCAxOTYuMTc5IDI5MS41ODQgQyAxNzkuNTE5IDI5MS41ODQgMTY3LjM0OSAyODguMjM0IDE1OS42NjkgMjgxLjUzNCBMIDE1OS42NjkgMjgxLjUzNCBMIDE1OS42NjkgMjgxLjUzNCBDIDE1MS45OTYgMjc0Ljg0MSAxNTAuMTE5IDI2My4xNjQgMTU0LjAzOSAyNDYuNTA0IEwgMTU0LjAzOSAyNDYuNTA0IEwgMTU0LjAzOSAyNDYuNTA0IEMgMTU3Ljk1OSAyMjkuMTkxIDE2Ni44NjIgMjEyLjY5NCAxODAuNzQ5IDE5Ny4wMTQgTCAxODAuNzQ5IDE5Ny4wMTQgTCAxODAuNzQ5IDE5Ny4wMTQgQyAxOTQuNjI5IDE4MS4zMzQgMjExLjEyMiAxNjcuNTMxIDIzMC4yMjkgMTU1LjYwNCBMIDIzMC4yMjkgMTU1LjYwNCBMIDIzMC4yMjkgMTU1LjYwNCBDIDI0OS4zNDIgMTQzLjY4NCAyNzAuMjQ5IDEzNC4yMTQgMjkyLjk0OSAxMjcuMTk0IEwgMjkyLjk0OSAxMjcuMTk0IEwgMjkyLjk0OSAxMjcuMTk0IEMgMzE1LjY1NiAxMjAuMTY3IDMzNy43ODkgMTE2LjY1NCAzNTkuMzQ5IDExNi42NTQgTCAzNTkuMzQ5IDExNi42NTQgTCAzNTkuMzQ5IDExNi42NTQgQyAzNzguMjk2IDExNi42NTQgMzk0LjIxOSAxMTkuMzQ3IDQwNy4xMTkgMTI0LjczNCBMIDQwNy4xMTkgMTI0LjczNCBMIDQwNy4xMTkgMTI0LjczNCBDIDQyMC4wMjYgMTMwLjEyNyA0MzAuMDcyIDEzNy4yMzQgNDM3LjI1OSAxNDYuMDU0IEwgNDM3LjI1OSAxNDYuMDU0IEwgNDM3LjI1OSAxNDYuMDU0IEMgNDQ0LjQ0NiAxNTQuODc0IDQ0OC45MzYgMTY1LjE2NCA0NTAuNzI5IDE3Ni45MjQgTCA0NTAuNzI5IDE3Ni45MjQgTCA0NTAuNzI5IDE3Ni45MjQgQyA0NTIuNTI5IDE4OC42ODQgNDUxLjk1OSAyMDAuOTM0IDQ0OS4wMTkgMjEzLjY3NCBMIDQ0OS4wMTkgMjEzLjY3NCBMIDQ0OS4wMTkgMjEzLjY3NCBDIDQ0NS40MjYgMjI5LjAyNyA0MzguNjQ2IDI0NC40NjQgNDI4LjY3OSAyNTkuOTg0IEwgNDI4LjY3OSAyNTkuOTg0IEwgNDI4LjY3OSAyNTkuOTg0IEMgNDE4LjcxOSAyNzUuNDk3IDQwNi4yMjYgMjg5LjU0NCAzOTEuMTk5IDMwMi4xMjQgTCAzOTEuMTk5IDMwMi4xMjQgTCAzOTEuMTk5IDMwMi4xMjQgQyAzNzYuMTcyIDMxNC42OTcgMzU4LjkzOSAzMjQuOTA0IDMzOS40OTkgMzMyLjc0NCBMIDMzOS40OTkgMzMyLjc0NCBMIDMzOS40OTkgMzMyLjc0NCBDIDMyMC4wNjYgMzQwLjU4NCAyOTkuNDA2IDM0NC41MDQgMjc3LjUxOSAzNDQuNTA0IEwgMjc3LjUxOSAzNDQuNTA0IEwgMjc1LjA2OSAzNDQuNTA0IEwgMjEyLjgzOSA0ODQuMTU0IEwgMTQyLjI3OSA0ODQuMTU0IEwgMjgwLjk0OSAxNzIuNTE0IFoiLz4mI3hhOyAgPC9nPiYjeGE7PC9zdmc+;labelPosition=center;align=center;" parent="1" vertex="1">
          <mxGeometry x="635.5" y="80" width="60" height="60" as="geometry" />
        </mxCell>
        <mxCell id="9sfPug-zY2OXsNQ2SP87-13" style="edgeStyle=orthogonalEdgeStyle;rounded=0;orthogonalLoop=1;jettySize=auto;html=1;" parent="1" source="9sfPug-zY2OXsNQ2SP87-12" target="9sfPug-zY2OXsNQ2SP87-5" edge="1">
          <mxGeometry relative="1" as="geometry" />
        </mxCell>
        <mxCell id="9sfPug-zY2OXsNQ2SP87-12" value="Grid Consumption" style="image;aspect=fixed;perimeter=ellipsePerimeter;html=1;align=center;shadow=0;dashed=0;spacingTop=3;image=img/lib/active_directory/home.svg;verticalAlign=bottom;labelPosition=center;verticalLabelPosition=top;" parent="1" vertex="1">
          <mxGeometry x="90" y="80" width="61.86" height="60" as="geometry" />
        </mxCell>
        <mxCell id="ERQPK_Wjldbbk1GuzCtZ-3" value="Key Vault" style="image;sketch=0;aspect=fixed;html=1;points=[];align=center;fontSize=12;image=img/lib/mscae/Key_Vaults.svg;" vertex="1" parent="1">
          <mxGeometry x="457.2" y="400" width="57.6" height="60" as="geometry" />
        </mxCell>
      </root>
    </mxGraphModel>
  </diagram>
</mxfile>
